<svg xmlns="http://www.w3.org/2000/svg" width="99" height="30"><title>logo</title><desc>Created with Sketch.</desc><g fill="none"><g fill-rule="nonzero"><g transform="translate(-310 -26) translate(308 20)"><g fill="#403181"><path d="M92.4 15.16c-.05 0-.1 0-.13 0-3.08 0-5.6 2.58-5.6 5.74s2.52 5.73 5.6 5.74c3.07 0 5.57-2.58 5.57-5.74 0-3.12-2.43-5.66-5.45-5.74zm-.3-3.13c.05 0 .1 0 .15 0 4.76 0 8.63 3.96 8.65 8.84 0 0 0 0 0 .02 0 0 0 .02 0 .02-.02 4.87-3.87 8.83-8.6 8.85-.02 0-.02 0-.03 0 0 0-.02 0-.02 0s0 0-.02 0c-4.73-.02-8.58-3.97-8.6-8.84 0 0 0 0 0-.02s0-.02 0-.03c.02-4.82 3.8-8.74 8.46-8.84zM62.62 12.44c.03 0 .06 0 .08 0 2.98 0 5.4 2.52 5.4 5.62s-2.42 5.57-5.4 5.57c-.04 0-.08 0-.12 0-.02 0-.03 0-.05 0H58.6v4.2c0 .87-.7 1.58-1.54 1.58-.84 0-1.52-.7-1.52-1.57v-5.66c0-.04 0-.1 0-.14 0-.04 0-.1 0-.13v-7.87c0-.88.68-1.6 1.52-1.6h5.47c.03 0 .06 0 .1 0zm0 3.17c-.03 0-.06 0-.1 0H58.6v4.85h3.93c.04 0 .1 0 .14 0 0 0 .02 0 .03 0 1.3 0 2.36-1.04 2.36-2.4 0-1.34-1.06-2.44-2.36-2.44-.02 0-.05 0-.08 0zM44.3 12.1c-.13-.05-.27-.08-.4-.1-2.18-.15-3.85.3-4.96 1.33-.96.9-1.46 2.16-1.5 3.75-.03 1.1.3 2.67 2.1 3.84.83.55 1.88.95 3.3 1.27.08 0 .16.02.24.02 3.15.7 3.56 1.6 3.62 2.1-.02.08-.02.17-.02.26 0 .34-.1.84-.5 1.25-.47.47-1.25.72-2.25.74-.1-.02-.2-.03-.3-.04-1.88-.05-3.2-.77-4.35-1.55-.7-.47-1.66-.27-2.13.46-.46.73-.27 1.7.44 2.18 1.38.93 3.13 1.9 5.57 2.05.12.03.24.05.37.05.1 0 .17 0 .26 0 2.37 0 3.76-.88 4.52-1.63.86-.87 1.35-2 1.42-3.25.02-.1.04-.23.04-.34 0-1.08-.36-2.63-2.08-3.82-1-.68-2.32-1.18-4.2-1.58-.06-.02-.13-.03-.2-.03-2.82-.67-2.8-1.6-2.8-1.9.03-1.07.4-1.4.5-1.5.42-.4 1.23-.58 2.34-.54.12.04.23.06.36.07.8.06 1.84.42 3.07 1.08.23.12.47.17.7.17.56 0 1.1-.3 1.37-.85.4-.77.1-1.72-.66-2.12-1.46-.78-2.73-1.23-3.88-1.38zM76.56 12.44c.03 0 .05 0 .08 0 2.98 0 5.4 2.52 5.4 5.62 0 2.23-1.25 4.14-3.07 5.03l2.76 3.7c.5.7.4 1.7-.28 2.22-.27.23-.6.33-.93.33-.45 0-.9-.2-1.2-.6l-3.8-5.13h-3v4.2c0 .88-.68 1.6-1.52 1.6-.85 0-1.53-.72-1.53-1.6v-13.8c0-.87.68-1.58 1.53-1.58h5.47c.03 0 .06 0 .1 0zm0 3.17c-.03 0-.06 0-.1 0h-3.94v4.85h3.95c.05 0 .1 0 .14 0 .02 0 .03 0 .04 0 1.3 0 2.36-1.04 2.36-2.4 0-1.34-1.06-2.44-2.36-2.44-.03 0-.05 0-.08 0z"/><path d="M51 21.3V21c0-.85.67-1.55 1.5-1.55.84 0 1.52.7 1.52 1.56v.3c0 .87-.68 1.57-1.52 1.57-.83 0-1.5-.7-1.5-1.56z"/></g><g fill="#fff"><ellipse id="Oval-2-Copy" cx="20.816" cy="22.189" rx="10.045" ry="10.022"/><path id="Combined-Shape-Copy" d="M14.54 26.2l5.26 3.24c.66.4.87 1.28.46 1.94-.2.3-.5.53-.85.62L6.98 35.1c-.75.2-1.52-.27-1.7-1.02l-2.8-11.25c-.05-.2-.1-.4-.17-.6-.05-.23-.1-.45-.13-.66l-.04-.18c-.04-.17-.05-.34-.03-.5-.25-3.6 2.1-6.98 5.74-7.88 4.08-1.02 8.2 1.45 9.22 5.52.72 2.92-.35 5.86-2.52 7.67z"/><path id="Combined-Shape-Copy-2" d="M15.1 9.2l6.7-2.73c2.78-1.1 5.92.22 7.04 3 1.12 2.76-.2 5.9-2.97 7.02l-12.34 4.98c-.24.13-.5.25-.74.35-.28.1-.55.2-.83.28-1 .37-2.02.42-2.98.2-2.55-.35-4.84-2.02-5.87-4.57l-.26-.63c-1.53-3.8.3-8.13 4.1-9.67 2.9-1.17 6.1-.38 8.14 1.76z"/></g><ellipse cx="20.816" cy="22.189" fill="#FFD740" style="mix-blend-mode:multiply" rx="10.045" ry="10.022"/><path fill="#FF4081" d="M14.54 26.2l5.26 3.24c.66.4.87 1.28.46 1.94-.2.3-.5.53-.85.62L6.98 35.1c-.75.2-1.52-.27-1.7-1.02l-2.8-11.25c-.05-.2-.1-.4-.17-.6-.05-.23-.1-.45-.13-.66l-.04-.18c-.04-.17-.05-.34-.03-.5-.25-3.6 2.1-6.98 5.74-7.88 4.08-1.02 8.2 1.45 9.22 5.52.72 2.92-.35 5.86-2.52 7.67z" style="mix-blend-mode:multiply"/><path fill="#40C4FF" d="M15.1 9.2l6.7-2.73c2.78-1.1 5.92.22 7.04 3 1.12 2.76-.2 5.9-2.97 7.02l-12.34 4.98c-.24.13-.5.25-.74.35-.28.1-.55.2-.83.28-1 .37-2.02.42-2.98.2-2.55-.35-4.84-2.02-5.87-4.57l-.26-.63c-1.53-3.8.3-8.13 4.1-9.67 2.9-1.17 6.1-.38 8.14 1.76z" style="mix-blend-mode:multiply"/></g></g></g></svg>